<svg xmlns="http://www.w3.org/2000/svg" width="512" height="512" viewBox="0 0 64 64" style="enable-background:new 0 0 512 512" xml:space="preserve"><g xmlns="http://www.w3.org/2000/svg"><g fill="#78b9eb"><path d="m40 42.2-3.1 6.2-6.4 1.3-4.1-2.5-2.7-5-12.2 5.6 8.5 8.1 12 2.4 12.5-3.5 7.9-7zM34.6 17.5l9.2 2.9 2.3-.5-.4-7.9-6.3-5.4h-6.3l-1.5 3-7.4 1-5.3 5.3-1.3 5.3 7.8 1.1z" data-original="#78b9eb"/></g><g fill="#006df0"><path d="M53.9 48.7c.5-.7.4-1.6-.3-2.1-3.5-2.9-8.2-5.1-13.6-6.1l-1.5-.3v-2.9c3.2-1.8 5.4-4.9 5.8-8.4 2.3-.1 4.1-2.2 4.1-4.9 0-1.1-.3-2.1-.9-3 .2-1.2 1.2-7.7-2.6-12C40.8 4.4 33 4.5 32.7 4.5c-.7 0-1.3.5-1.5 1.2 0 .1-.2.9-.3 2.2-2.8 0-5.3.6-7.4 1.7-6.3 3.3-8 11.3-8 11.6-.1.4 0 .8.2 1.1-.2.5-.3 1.1-.3 1.7 0 1.3.4 2.5 1.1 3.3.8 1 1.9 1.5 3 1.5.3 2.6 1.6 4.9 3.6 6.8.7.6 1.4 1.2 2.3 1.7v2.9l-1.5.3c-5.4 1.1-10.1 3.2-13.6 6.1-.6.5-.8 1.4-.3 2.1 5.2 6.9 13.2 10.8 21.9 10.8s16.7-3.9 22-10.8zm-9.5-22.9v-3.5h.3c1.1.8.8 3.2-.3 3.5zM34.1 7.6c2.1.2 6.3.9 8.7 3.5 2.2 2.5 2.2 6.3 2 8.3-2.1-.2-6.3-.9-8.7-3.5-2.2-2.6-2.2-6.4-2-8.3zM25 12.2c1.7-.9 3.7-1.3 6.1-1.3.2 1.9.7 4.1 2 6-1 1.2-2 2.1-3.2 2.8-2.8 1.5-6.2 1.5-8.6 1.2-.9-.1-1.7-.3-2.3-.4.6-2.3 2.4-6.4 6-8.3zm-6 13.2c-.4-.5-.6-1.4-.4-2.1.3.1.6.1.9.2v2.3c-.2 0-.4-.2-.5-.4zm3.6 2v-3.5h1.2c2.4 0 5.1-.4 7.5-1.7 1.5-.8 2.8-1.9 3.9-3.2 1.9 1.5 4.2 2.3 6.2 2.8v5.6c0 3.2-2 6.1-5.1 7.6-.5.3-.8.8-.9 1.3v5.1c0 .7.5 1.3 1.2 1.5 0 0 .9.1 1.3.2-.6 2.7-3.1 4.7-6 4.7s-5.3-2-6-4.7c.4-.1.8-.1 1.2-.2.7-.1 1.3-.7 1.3-1.4v-5.3c0-.5-.4-1-.9-1.2-.9-.4-1.7-.9-2.4-1.6-1.6-1.6-2.5-3.8-2.5-6zM32 56.5c-7.2 0-13.9-3.1-18.5-8.5 2.6-1.9 5.9-3.4 9.6-4.3.9 4.1 4.5 7.1 8.9 7.1s8-3 8.9-7.1c3.7.9 7 2.4 9.6 4.3-4.6 5.4-11.3 8.5-18.5 8.5zM4 13.7c.8 0 1.5-.7 1.5-1.5V5.5h6.7c.8 0 1.5-.7 1.5-1.5s-.7-1.5-1.5-1.5H4c-.8 0-1.5.7-1.5 1.5v8.2c0 .8.7 1.5 1.5 1.5zM12.2 58.5H5.5v-6.7c0-.8-.7-1.5-1.5-1.5s-1.5.7-1.5 1.5V60c0 .8.7 1.5 1.5 1.5h8.2c.8 0 1.5-.7 1.5-1.5s-.7-1.5-1.5-1.5zM60 50.3c-.8 0-1.5.7-1.5 1.5v6.7h-6.7c-.8 0-1.5.7-1.5 1.5s.7 1.5 1.5 1.5H60c.8 0 1.5-.7 1.5-1.5v-8.2c0-.8-.7-1.5-1.5-1.5zM60 2.5h-8.2c-.8 0-1.5.7-1.5 1.5s.7 1.5 1.5 1.5h6.7v6.7c0 .8.7 1.5 1.5 1.5s1.5-.7 1.5-1.5V4c0-.8-.7-1.5-1.5-1.5z" data-original="#006df0"/></g></g></svg>